# xmcd
#
# Track frame offsets:
#	150
#	15745
#	30320
#	44847
#	72926
#	89333
#	111311
#	135900
#	150613
#	177727
#	193708
#	214254
#
# Disc length: 3149 seconds
#
# Revision: 2
# Processed by: cddbd v1.5.1PL0 Copyright (c) Steve Scherf et al.
# Submitted via: EasyCDDAExtractor 5.0.6
#
DISCID=a90c4b0c
DTITLE=Goldrush - Ozona
DYEAR=2004
DGENRE=alt. country
TTITLE0=Wait For The Wheels
TTITLE1=All The Faces
TTITLE2=Jupiter
TTITLE3=Counting Song
TTITLE4=Feel
TTITLE5=Let You Down
TTITLE6=Each Moment In Time
TTITLE7=Come On Come On
TTITLE8=There's A World
TTITLE9=What I Thought
TTITLE10=52nd State
TTITLE11=Wait For The Wheels Video
EXTD=
EXTT0=
EXTT1=
EXTT2=
EXTT3=
EXTT4=
EXTT5=
EXTT6=
EXTT7=
EXTT8=
EXTT9=
EXTT10=
EXTT11=
PLAYORDER=
